# xmcd
#
# Track frame offsets:
#	150
#	20697
#	43834
#	56073
#	80652
#	97892
#	120430
#	144821
#	163864
#	189057
#	210055
#
# Disc length: 3164 seconds
#
# Revision: 0
# Processed by: cddbd v1.5.2PL0 Copyright (c) Steve Scherf et al.
# Submitted via: EasyCDDAExtractor 15.3.0.1
#
DISCID=840c5a0b
DTITLE=Tab Benoit - Sea Saint Sessions
DYEAR=2003
DGENRE=Blues
TTITLE0=Baby Blue
TTITLE1=Boat Launch Baby
TTITLE2=Sufferin' Mind
TTITLE3=Hustlin' Down in New Orleans
TTITLE4=Solid Simple Thing
TTITLE5=What I Have to Do
TTITLE6=Monk's Blues
TTITLE7=Making the Bend
TTITLE8=Howlin' for My Darling
TTITLE9=Darkness
TTITLE10=Plareen Man
EXTD=
EXTT0=
EXTT1=
EXTT2=
EXTT3=
EXTT4=
EXTT5=
EXTT6=
EXTT7=
EXTT8=
EXTT9=
EXTT10=
PLAYORDER=
